<svg xmlns="http://www.w3.org/2000/svg" viewBox="0 0 96 96" width="96" height="96"><rect width="96" height="96" rx="18" fill="#fde7e4"/>
<path d="M14 22h44a6 6 0 0 1 6 6v20a6 6 0 0 1-6 6H32l-10 9v-9h-8a6 6 0 0 1-6-6V28a6 6 0 0 1 6-6z" fill="#fff" stroke="#1a1a1a" stroke-width="3" stroke-linecap="round" stroke-linejoin="round"/>
<path d="M36 46c-8-5-11-9-11-13a5 5 0 0 1 11-2 5 5 0 0 1 11 2c0 4-3 8-11 13z" fill="#f2412f" stroke="#1a1a1a" stroke-width="2.5" stroke-linejoin="round"/>
<path d="M62 44h18a6 6 0 0 1 6 6v14a6 6 0 0 1-6 6h-2v8l-9-8h-7a6 6 0 0 1-6-6V50" fill="#ffc102" stroke="#1a1a1a" stroke-width="3" stroke-linecap="round" stroke-linejoin="round"/></svg>
