<svg xmlns="http://www.w3.org/2000/svg" viewBox="0 0 96 96" width="96" height="96"><rect width="96" height="96" rx="18" fill="#e6f0ff"/>
<circle cx="40" cy="48" r="24" fill="#fff" stroke="#1a1a1a" stroke-width="3" stroke-linecap="round" stroke-linejoin="round"/>
<path d="M17 40c6-14 40-14 46 0" fill="none" stroke="#1a1a1a" stroke-width="5" stroke-linecap="round"/>
<g fill="#22c4d8" stroke="#1a1a1a" stroke-width="2"><circle cx="22" cy="36" r="3.5"/><circle cx="32" cy="29" r="3.5"/><circle cx="48" cy="29" r="3.5"/><circle cx="58" cy="36" r="3.5"/></g>
<circle cx="32" cy="48" r="2.5" fill="#1a1a1a"/><circle cx="48" cy="48" r="2.5" fill="#1a1a1a"/>
<path d="M31 62c5-5 13-5 18 0" fill="none" stroke="#1a1a1a" stroke-width="3" stroke-linecap="round" stroke-linejoin="round"/><path d="M50 52c1 3 1 5-1 6" fill="none" stroke="#22c4d8" stroke-width="2.5" stroke-linecap="round"/>
<path d="M62 74h6l3-8 4 14 4-12 3 6h8" fill="none" stroke="#f2412f" stroke-width="3" stroke-linecap="round" stroke-linejoin="round"/>
<path d="M66 20h20v16H66z" fill="#ffc102" stroke="#1a1a1a" stroke-width="3" stroke-linecap="round" stroke-linejoin="round"/><path d="M70 30c2-3 3 3 5 0s3 3 5 0" fill="none" stroke="#1a1a1a" stroke-width="2" stroke-linecap="round"/></svg>
