<svg xmlns="http://www.w3.org/2000/svg" viewBox="0 0 96 96" width="96" height="96"><rect width="96" height="96" rx="18" fill="#efe9fb"/>
<path d="M36 18c-8 0-14 6-14 13-6 2-9 8-7 14-4 5-3 13 3 16 0 7 6 12 13 11 3 4 9 5 13 2V20c-2-2-5-2-8-2z" fill="#f7b6c8" stroke="#1a1a1a" stroke-width="3" stroke-linecap="round" stroke-linejoin="round"/>
<path d="M44 20c4-3 10-2 13 2 7-1 13 4 13 11 6 2 8 9 6 14 4 6 1 13-5 15-1 6-7 10-13 8-3 4-10 4-14 0" fill="#f7b6c8" stroke="#1a1a1a" stroke-width="3" stroke-linecap="round" stroke-linejoin="round"/>
<path d="M30 34c4 0 6 3 6 6M26 52c4-1 8 1 9 5M60 34c-4 0-6 3-6 6M64 52c-4-1-8 1-9 5" fill="none" stroke="#1a1a1a" stroke-width="2" stroke-linecap="round"/>
<path d="M52 26L40 48h10l-6 20 16-26H50z" fill="#ffc102" stroke="#1a1a1a" stroke-width="3" stroke-linecap="round" stroke-linejoin="round"/>
<path d="M8 84h20l4-8 5 12 5-14 4 10h42" fill="none" stroke="#f2412f" stroke-width="3" stroke-linecap="round" stroke-linejoin="round"/></svg>
