<svg xmlns="http://www.w3.org/2000/svg" viewBox="0 0 96 96" width="96" height="96"><rect width="96" height="96" rx="18" fill="#e7f4e3"/>
<g fill="none" stroke="#1a1a1a" stroke-width="3" stroke-linecap="round" stroke-linejoin="round">
<path d="M48 30a6 6 0 1 1 6-6c0 3-2 4.5-4 5.5-1.3.7-2 1.6-2 3V36"/>
<path d="M48 36L16 58c-3 2-1.6 6 2 6h60c3.6 0 5-4 2-6z" fill="#fff"/>
</g>
<path d="M48 82s-12-7-12-15c0-4 3-7 6.5-7 2.5 0 4.5 1.4 5.5 3.4 1-2 3-3.4 5.5-3.4 3.5 0 6.5 3 6.5 7 0 8-12 15-12 15z" fill="#f2412f" stroke="#1a1a1a" stroke-width="2.5" stroke-linejoin="round"/>
</svg>
